<svg xmlns="http://www.w3.org/2000/svg" viewBox="0 0 512 512">
  <!-- Box Icon -->
  <path fill="#FFFFFF" d="M509.5 184.6L458.1 32.8C452.4 15.7 436.3 4 418.3 4H93.7C75.7 4 59.6 15.7 53.9 32.8L2.5 184.6c-5.8 17.2-1.7 36.2 10.9 49.3 12.6 13.1 30.6 18.1 48.1 13.3l48.2-13.2 58.4 75.1c11.1 14.3 28.1 22.9 46.2 22.9h83.4c18.1 0 35.1-8.6 46.2-22.9l58.4-75.1 48.2 13.2c17.5 4.8 35.5-.2 48.1-13.3 12.6-13.1 16.7-32.1 10.9-49.3zM256 368c-26.5 0-48 21.5-48 48s21.5 48 48 48 48-21.5 48-48-21.5-48-48-48z"/>
  <path fill="#FFFFFF" opacity="0.8" d="M464 224v224c0 26.5-21.5 48-48 48H96c-26.5 0-48-21.5-48-48V224c0-17.7 14.3-32 32-32s32 14.3 32 32v208h288V224c0-17.7 14.3-32 32-32s32 14.3 32 32z"/>
</svg>
